<svg width="24" height="24" viewBox="0 0 24 24" fill="none" xmlns="http://www.w3.org/2000/svg">
<path fill-rule="evenodd" clip-rule="evenodd" d="M13.7308 3.98963C12.9604 2.65906 11.0394 2.65906 10.2691 3.98962L2.73796 16.9979C1.96603 18.3312 2.92815 20 4.46881 20H19.531C21.0717 20 22.0338 18.3312 21.2619 16.9979L13.7308 3.98963ZM11.9999 8.99997C12.5522 8.99997 12.9999 9.44769 12.9999 9.99997V13.5C12.9999 14.0523 12.5522 14.5 11.9999 14.5C11.4476 14.5 10.9999 14.0523 10.9999 13.5V9.99997C10.9999 9.44769 11.4476 8.99997 11.9999 8.99997ZM11.9999 15.4449C12.5522 15.4449 12.9999 15.8926 12.9999 16.4449V16.5C12.9999 17.0523 12.5522 17.5 11.9999 17.5C11.4476 17.5 10.9999 17.0523 10.9999 16.5V16.4449C10.9999 15.8926 11.4476 15.4449 11.9999 15.4449Z" fill="#F44C4C"/>
</svg>
