<svg width="20" height="18" viewBox="0 0 20 18" fill="none" xmlns="http://www.w3.org/2000/svg">
<path fill-rule="evenodd" clip-rule="evenodd" d="M11.7308 1.98963C10.9604 0.659058 9.0394 0.659055 8.26907 1.98962L0.737959 14.9979C-0.0339699 16.3312 0.928147 18 2.46881 18H17.531C19.0717 18 20.0338 16.3312 19.2619 14.9979L11.7308 1.98963ZM9.99992 6.99997C10.5522 6.99997 10.9999 7.44769 10.9999 7.99997V11.5C10.9999 12.0523 10.5522 12.5 9.99992 12.5C9.44763 12.5 8.99992 12.0523 8.99992 11.5V7.99997C8.99992 7.44769 9.44763 6.99997 9.99992 6.99997ZM9.99992 13.4449C10.5522 13.4449 10.9999 13.8926 10.9999 14.4449V14.5C10.9999 15.0523 10.5522 15.5 9.99992 15.5C9.44763 15.5 8.99992 15.0523 8.99992 14.5V14.4449C8.99992 13.8926 9.44763 13.4449 9.99992 13.4449Z" fill="#F44C4C"/>
</svg>
