<svg width="12" height="13" viewBox="0 0 12 13" fill="none" xmlns="http://www.w3.org/2000/svg">
<circle cx="6" cy="6.5" r="6" fill="black"/>
<path fill-rule="evenodd" clip-rule="evenodd" d="M5.5001 3.84998H4.0001C2.53654 3.84998 1.3501 5.03642 1.3501 6.49998C1.3501 7.96353 2.53654 9.14998 4.0001 9.14998H5.5001V7.84998H4.0001C3.25451 7.84998 2.6501 7.24556 2.6501 6.49998C2.6501 5.75439 3.25451 5.14998 4.0001 5.14998H5.5001V3.84998ZM6.5001 7.84998H8.0001C8.74568 7.84998 9.3501 7.24556 9.3501 6.49998C9.3501 5.75439 8.74568 5.14998 8.0001 5.14998H6.5001V3.84998H8.0001C9.46365 3.84998 10.6501 5.03642 10.6501 6.49998C10.6501 7.96353 9.46365 9.14998 8.0001 9.14998H6.5001V7.84998Z" fill="white"/>
<path d="M5 6.5H7" stroke="white" stroke-width="1.3" stroke-linecap="round" stroke-linejoin="round"/>
</svg>
